<svg xmlns="http://www.w3.org/2000/svg" id="Layer_1" data-name="Layer 1" viewBox="0 0 974.41 238.15"><defs><style>.cls-1,.cls-2{fill:#fff;stroke-width:0}.cls-2{fill:#e63064;fill-rule:evenodd}</style></defs><path d="M134.72 69.88v49.1c0 26.37-21.4 47.76-47.76 47.76s-47.76-21.4-47.76-47.76v-49.1c-12.8 12.42-20.83 30-20.83 49.1 0 37.83 30.76 68.59 68.59 68.59s68.59-30.76 68.59-68.59c0-19.11-8.02-36.49-20.83-49.1m-18.91 11.08V56.89c-8.79-4.01-18.53-6.3-28.85-6.3s-20.06 2.29-28.85 6.3v24.07c8.02-6.11 17.96-9.74 28.85-9.74s20.83 3.63 28.85 9.74" class="cls-2"/><path d="M116.76 119.17c0 16.05-12.99 29.04-29.04 29.04s-29.04-12.99-29.04-29.04 12.99-29.04 29.04-29.04c16.05-.19 29.04 12.99 29.04 29.04" class="cls-2"/><path d="M945.72 74.58c-5.85 0-10.57-4.72-10.57-10.57s4.72-10.57 10.57-10.57 10.57 4.72 10.57 10.57-4.72 10.57-10.57 10.57m0-19.43c-4.91 0-8.87 3.96-8.87 8.87s3.96 8.87 8.87 8.87 8.87-3.96 8.87-8.87-4.15-8.87-8.87-8.87" class="cls-1"/><path d="M950.63 69.86h-1.89l-2.26-3.21c-.19-.38-.38-.57-.57-.75l-.57-.57c-.19-.19-.38-.19-.57-.38s-.57 0-.75 0h-1.32v4.91h-1.51V58.35h3.96c.57 0 1.13 0 1.7.19s.94.38 1.32.57l.94.94c.19.38.38.94.38 1.32s0 .75-.19 1.13-.38.57-.57.94c-.38.38-.57.57-.94.75s-.75.38-1.13.38c.19 0 .38.19.57.38s.38.19.57.38.38.38.38.57l.57.57 1.89 3.4Zm-7.92-10.38v4.15h2.08c.38 0 .75 0 1.13-.19.38 0 .57-.38.94-.38.19-.19.38-.38.57-.75.19-.38.19-.57.19-.94 0-.57-.19-1.13-.75-1.51s-1.13-.57-2.08-.57zM554.02 90.5c-7.36 0-13.58 2.26-18.3 6.79V52.57h-13.58v103.96h13.02v-4.91c5.09 4.72 11.7 7.17 19.25 7.17 19.06 0 32.45-13.96 32.45-34.15s-13.58-34.15-32.83-34.15Zm.19 56.41c-9.25 0-19.25-6.98-19.25-22.26 0-12.83 7.55-22.26 18.11-22.26 14.34 0 19.43 12.08 19.43 22.26.19 13.58-7.17 22.26-18.3 22.26Zm94.15-54.14v36.98c0 18.49-9.81 29.06-26.98 29.06s-26.98-10.57-26.98-29.06V92.77h13.58v37.92c0 16.04 10 16.04 13.4 16.04s13.4 0 13.4-16.04V92.77zm58.49-40.19v44.34c-4.53-4.34-10.57-6.6-17.74-6.6-19.25 0-33.21 14.34-33.21 34.34 0 23.4 17.17 34.15 33.02 34.15 7.17 0 13.77-2.64 18.68-7.17v4.72h13.02V52.58zm-18.11 94.34c-13.02 0-18.87-11.51-18.87-22.26 0-8.87 5.09-22.26 19.25-22.26 10.57 0 18.3 9.43 18.3 22.26 0 13.4-7.55 22.26-18.68 22.26m90.75-94.34v44.34c-4.53-4.34-10.75-6.6-17.92-6.6-19.25 0-33.21 14.34-33.21 34.34 0 23.4 17.17 34.15 33.02 34.15 7.17 0 13.77-2.64 18.68-7.17v4.72h13.02V52.58H779.5Zm-18.11 94.34c-13.02 0-18.87-11.51-18.87-22.26 0-8.87 5.09-22.26 19.25-22.26 10.57 0 18.3 9.43 18.3 22.26 0 13.4-7.55 22.26-18.68 22.26m96.23-30.38v40h-13.58v-38.87c0-10.94-2.83-15.09-10.38-15.09-9.25 0-15.85 8.87-15.85 21.13v33.02h-13.58V52.58h13.58v44.34c3.58-3.4 9.06-6.6 16.79-6.6 14.34.19 23.02 9.81 23.02 26.23Zm59.24-23.77v4.72c-4.91-4.72-11.13-7.17-18.49-7.17-19.25 0-33.21 14.34-33.21 34.34s13.96 34.15 33.02 34.15c7.17 0 13.77-2.64 18.68-7.17v4.72h13.02V92.78h-13.02Zm-18.68 54.15c-12.45 0-18.87-11.13-18.87-22.26 0-12.83 8.11-22.26 19.25-22.26 12.08 0 18.3 11.13 18.3 22.26 0 13.4-7.55 22.26-18.68 22.26M250.25 52.58v44.34c-4.53-4.34-10.75-6.6-17.74-6.6-19.25 0-33.21 14.34-33.21 34.34 0 23.4 17.17 34.15 33.02 34.15 7.17 0 13.77-2.64 18.68-7.17v4.72h13.02V52.58zm-18.11 94.34c-13.02 0-18.87-11.51-18.87-22.26 0-8.87 5.09-22.26 19.25-22.26 10.57 0 18.3 9.43 18.3 22.26 0 13.4-7.55 22.26-18.68 22.26m58.68-70.94c0 4.91-3.96 8.87-8.87 8.87s-8.87-3.96-8.87-8.87 3.96-8.87 8.87-8.87c4.91-.19 8.87 3.77 8.87 8.87m-15.66 16.79h13.58v63.58h-13.58zm72.64 0v4.53c-4.72-4.53-10.94-6.98-18.3-6.98-19.25 0-33.21 14.34-33.21 34.34 0 22.45 16.6 34.15 33.02 34.15 6.98 0 13.21-2.26 18.11-6.6-.19 14.91-6.04 22.26-18.11 22.26-3.21 0-13.77-.75-16.42-10.57l-.57-2.08h-14.53l.94 3.4c1.89 7.92 8.49 21.13 30.57 21.13 19.43 0 31.51-13.21 31.51-34.72V92.76h-13.02Zm-18.68 54.15c-12.45 0-18.87-11.13-18.87-22.26 0-8.87 5.09-22.26 19.25-22.26 12.08 0 18.3 11.13 18.3 22.26 0 13.4-7.55 22.26-18.68 22.26m43.02-54.15h13.58v63.58h-13.58zm15.66-16.79c0 4.91-3.96 8.87-8.87 8.87s-8.87-3.96-8.87-8.87 3.96-8.87 8.87-8.87 8.87 3.77 8.87 8.87m36.03 16.79v12.07H412.7v51.7h-13.58v-51.7h-9.44V92.77h9.44V70.31h13.58v22.46zm50.57 0v4.72c-4.91-4.72-11.13-7.17-18.49-7.17-19.25 0-33.21 14.34-33.21 34.34s13.96 34.15 33.02 34.15c7.17 0 13.77-2.64 18.68-7.17v4.72h13.02V92.78H474.4Zm-18.49 54.15c-12.45 0-18.87-11.13-18.87-22.26 0-12.83 8.11-22.26 19.25-22.26 12.08 0 18.3 11.13 18.3 22.26-.19 13.4-7.55 22.26-18.68 22.26m42.64-94.34h13.58v103.96h-13.58zM382.32 176.92h-6.42v4.72h5.66v2.26h-5.66v5.09h6.42v2.26h-9.06v-16.42h9.06v2.08Zm25.66-2.08v16.42h-2.64L397.23 179v12.26h-2.64v-16.42h2.64l8.11 12.26v-12.26zm27.55 4.72h-3.21c-.94-1.7-2.45-2.45-4.34-2.45-3.21 0-5.66 2.26-5.66 5.85s2.26 5.85 5.66 5.85c3.02 0 4.91-1.7 5.28-4.53h-6.23v-2.08h9.06v2.08c-.57 3.77-3.77 6.98-8.11 6.98s-8.3-3.4-8.3-8.3 3.77-8.3 8.3-8.3c3.4 0 6.42 1.7 7.55 4.91Zm12.08-4.72h2.64v16.42h-2.64zm28.68 0v16.42h-2.64L465.54 179v12.26h-2.64v-16.42h2.64l8.11 12.26v-12.26zm21.51 2.08h-6.42v4.72h5.66v2.26h-5.66v5.09h6.42v2.26h-9.06v-16.42h9.06v2.08Zm21.32 0h-6.42v4.72h5.66v2.26h-5.66v5.09h6.42v2.26h-9.06v-16.42h9.06v2.08Zm17.73-2.08c3.96 0 5.85 2.26 5.85 4.91 0 1.89-.94 3.96-3.77 4.72l3.96 6.79h-3.21l-3.77-6.6h-2.08v6.6h-2.64v-16.42zm0 2.08h-3.02v5.47h3.02c2.08 0 3.02-1.13 3.02-2.83.19-1.51-.75-2.64-3.02-2.64m18.3-2.08h2.64v16.42h-2.64zm28.49 0v16.42H581L572.89 179v12.26h-2.64v-16.42h2.64L581 187.1v-12.26zm27.55 4.72h-3.21c-.94-1.7-2.45-2.45-4.34-2.45-3.21 0-5.66 2.26-5.66 5.85s2.26 5.85 5.66 5.85c3.02 0 4.91-1.7 5.28-4.53h-6.23v-2.08h9.06v2.08c-.57 3.77-3.77 6.98-8.11 6.98s-8.3-3.4-8.3-8.3 3.77-8.3 8.3-8.3c3.4 0 6.42 1.7 7.55 4.91Zm26.42-4.72h11.51v2.26h-4.34v14.15h-2.64V177.1h-4.53zm33.39 9.25h-7.74v7.17h-2.64v-16.42h2.64v6.98H671v-6.98h2.64v16.42H671zm24.15-7.17h-6.42v4.72h5.66v2.26h-5.66v5.09h6.42v2.26h-9.06v-16.42h9.06v2.08Zm27.36-2.08h2.64v16.42h-2.64zm28.49 0v16.42h-2.64L740.25 179v12.26h-2.64v-16.42h2.64l8.11 12.26v-12.26zm20-.19c3.4 0 6.42 1.7 7.55 4.91h-3.21c-.94-1.7-2.45-2.64-4.34-2.64-3.21 0-5.66 2.26-5.66 6.04S767.6 189 771 189c1.89 0 3.58-.75 4.34-2.64h3.21c-1.32 3.21-4.15 4.91-7.55 4.91-4.53 0-8.3-3.4-8.3-8.3 0-4.91 3.77-8.3 8.3-8.3Zm25.29.19c3.96 0 5.85 2.26 5.85 4.91 0 1.89-.94 3.96-3.77 4.72l3.96 6.79h-3.21l-3.77-6.6h-2.08v6.6h-2.64v-16.42zm0 2.08h-3.02v5.47h3.02c2.08 0 3.02-1.13 3.02-2.83 0-1.51-.94-2.64-3.02-2.64m27.17 0h-6.42v4.72h5.66v2.26h-5.66v5.09h6.42v2.26h-9.06v-16.42h9.06v2.08Zm26.41 6.22c0 5.09-3.4 8.11-8.68 8.11h-5.47v-16.42H841c5.28 0 8.87 3.21 8.87 8.3Zm-8.68 5.85c3.77 0 5.85-2.26 5.85-5.85 0-3.77-2.08-6.04-5.85-6.04h-2.64v12.08h2.64zm20.19-14.15h2.64v16.42h-2.64zm21.7 16.42h-6.6v-16.42h6.23c3.4 0 5.28 1.89 5.28 4.15 0 1.89-1.13 3.21-2.83 3.77 1.7.38 3.21 2.08 3.21 3.96.19 2.45-1.89 4.53-5.28 4.53Zm-.57-14.34h-3.4v4.72h3.4c1.7 0 2.83-.75 2.83-2.26s-1.13-2.45-2.83-2.45Zm.19 6.98h-3.58v5.09h3.58c1.89 0 2.83-.94 2.83-2.45.19-1.7-.94-2.64-2.83-2.64m20.38-9.06v14.15h5.47v2.08h-8.3v-16.42h2.83zm25.66 2.08h-6.42v4.72h5.66v2.26h-5.66v5.09h6.42v2.26h-9.06v-16.42h9.06v2.08Z" class="cls-1"/></svg>